<svg width="166" height="166" viewBox="0 0 166 166" fill="none" xmlns="http://www.w3.org/2000/svg">
<g clip-path="url(#clip0_17_16)">
<path d="M62.25 112.396C59.8292 112.396 57.7841 111.559 56.1149 109.885C54.4411 108.216 53.6042 106.171 53.6042 103.75C53.6042 101.329 54.4411 99.2841 56.1149 97.6149C57.7841 95.9411 59.8292 95.1042 62.25 95.1042C64.6708 95.1042 66.7159 95.9411 68.3851 97.6149C70.0589 99.2841 70.8958 101.329 70.8958 103.75C70.8958 106.171 70.0589 108.216 68.3851 109.885C66.7159 111.559 64.6708 112.396 62.25 112.396ZM103.75 112.396C101.329 112.396 99.2841 111.559 97.6149 109.885C95.9411 108.216 95.1042 106.171 95.1042 103.75C95.1042 101.329 95.9411 99.2841 97.6149 97.6149C99.2841 95.9411 101.329 95.1042 103.75 95.1042C106.171 95.1042 108.216 95.9411 109.885 97.6149C111.559 99.2841 112.396 101.329 112.396 103.75C112.396 106.171 111.559 108.216 109.885 109.885C108.216 111.559 106.171 112.396 103.75 112.396ZM83 152.167C98.4472 152.167 111.531 146.806 122.252 136.085C132.973 125.365 138.333 112.281 138.333 96.8333C138.333 94.0667 138.16 91.3853 137.815 88.7893C137.469 86.1978 136.835 83.6917 135.913 81.2708C133.492 81.8472 131.071 82.2807 128.65 82.5712C126.229 82.8571 123.693 83 121.042 83C110.551 83 100.638 80.7521 91.3 76.2563C81.9625 71.7604 74.0083 65.4778 67.4375 57.4083C63.7486 66.4 58.4758 74.2112 51.6191 80.842C44.7578 87.4682 36.7736 92.4528 27.6667 95.7959V96.8333C27.6667 112.281 33.0271 125.365 43.7479 136.085C54.4688 146.806 67.5528 152.167 83 152.167ZM83 166C73.4319 166 64.4403 164.183 56.025 160.55C47.6097 156.921 40.2896 151.994 34.0646 145.769C27.8396 139.544 22.9126 132.224 19.2837 123.808C15.6501 115.393 13.8333 106.401 13.8333 96.8333C13.8333 93.4903 14.0639 90.1749 14.525 86.8872C14.9861 83.6041 15.6778 80.4639 16.6 77.4667C11.6431 74.4695 7.63831 70.4071 4.58575 65.2795C1.52858 60.1473 0 54.4688 0 48.2438C0 38.6757 3.34306 30.5486 10.0292 23.8625C16.7153 17.1764 24.8424 13.8333 34.4104 13.8333C40.5201 13.8333 46.1411 15.302 51.2733 18.2393C56.4008 21.1811 60.5208 25.2458 63.6333 30.4333C66.6306 29.5111 69.7707 28.8195 73.0538 28.3583C76.3416 27.8972 79.657 27.6667 83 27.6667C92.5681 27.6667 101.56 29.4812 109.975 33.1101C118.39 36.7437 125.71 41.6729 131.935 47.8979C138.16 54.1229 143.087 61.4431 146.716 69.8583C150.35 78.2736 152.167 87.2653 152.167 96.8333C152.167 106.401 150.35 115.393 146.716 123.808C143.087 132.224 138.16 139.544 131.935 145.769C125.71 151.994 118.39 156.921 109.975 160.55C101.56 164.183 92.5681 166 83 166Z" fill="white"/>
<g clip-path="url(#clip1_17_16)">
<path d="M30.6337 169.917C27.0965 163.967 25.7514 157.954 26.5984 151.88C27.4441 145.804 29.6411 140.488 33.1894 135.934L51.1234 112.763C51.9333 111.706 52.9845 111.208 54.277 111.268C55.5703 111.324 56.5486 111.91 57.2118 113.026C57.8434 114.089 58.2907 115.656 58.5536 117.729C58.8143 119.803 58.2999 121.69 57.0104 123.392L48.4268 134.534L49.848 136.925L87.3028 114.66C88.4185 113.996 89.5913 113.821 90.8213 114.134C92.0479 114.446 92.9928 115.16 93.656 116.276C94.3192 117.391 94.4948 118.562 94.1829 119.789C93.87 121.019 93.1558 121.966 92.0401 122.629L64.1482 139.209L66.0431 142.397L100.31 122.027C101.426 121.363 102.599 121.188 103.829 121.501C105.055 121.813 106 122.527 106.663 123.643C107.327 124.758 107.502 125.929 107.19 127.156C106.877 128.386 106.163 129.332 105.048 129.996L70.7803 150.366L72.6752 153.554L102.161 136.026C103.277 135.362 104.449 135.187 105.679 135.5C106.906 135.812 107.851 136.526 108.514 137.642C109.177 138.757 109.354 139.929 109.043 141.158C108.729 142.386 108.014 143.332 106.898 143.995L77.4125 161.523L79.3074 164.71L99.2302 152.867C100.346 152.204 101.519 152.029 102.749 152.342C103.975 152.654 104.92 153.367 105.583 154.483C106.247 155.599 106.423 156.771 106.112 158C105.798 159.228 105.083 160.173 103.967 160.836L71.294 180.259C64.1749 184.491 56.6764 185.605 48.7985 183.601C40.9205 181.597 34.8656 177.036 30.6337 169.917Z" fill="white"/>
</g>
</g>
<defs>
<clipPath id="clip0_17_16">
<rect width="166" height="166" fill="white"/>
</clipPath>
<clipPath id="clip1_17_16">
<rect width="89" height="89" fill="white" transform="translate(82.5035 83) rotate(59.2706)"/>
</clipPath>
</defs>
</svg>
